<svg id="angellist" width="32px" height="32px" viewBox="0 0 32 32" version="1.1" xmlns="http://www.w3.org/2000/svg" xmlns:xlink="http://www.w3.org/1999/xlink">
    <path d="M16,5.86197757e-14 C24.8365564,5.86197757e-14 32,7.16344357 32,16 C32,24.8365564 24.8365564,32 16,32 C7.16344357,32 0,24.8365564 0,16 C0,7.16344357 7.16344357,5.86197757e-14 16,5.86197757e-14 Z M13.3467325,6 C12.1233559,6 11.5490377,6.89453125 11.5490377,8.01953125 C11.5490377,9.3984375 12.8943586,12.9726563 13.3821357,14.3476563 C13.1343135,14.2578125 12.8668228,14.1796875 12.5953984,14.1796875 C11.6749156,14.1796875 10.6954276,15.3164063 10.6954276,16.234375 C10.6954276,16.5820313 10.8881783,17.0703125 11.0101226,17.3945313 C9.55859213,17.7851563 9.0000043,18.7460938 9.0000043,20.1953125 C8.99607492,23.015625 11.6867167,26 15.4709234,26 C20.1126739,26 23.0000043,22.5390625 23.0000043,18.0742188 C23.0000043,16.390625 22.7285756,14.8710938 20.8404059,14.4140625 C21.3006473,13.140625 22.6262998,9.45703125 22.6262998,8.27734375 C22.6262998,7.23828125 22.0087109,6.3671875 20.9072786,6.3671875 C19.1528543,6.3671875 17.5793796,11.5117188 17.0876687,12.7382813 C16.7061011,11.625 14.9202073,6 13.3467325,6 Z M15.7226794,14.8476563 C16.9932602,14.8476563 20.2188834,15.1601563 21.1629683,15.984375 C21.8749656,16.6132813 22.1188542,20.40625 19.9435253,22.8085938 C18.7988225,24.0585938 17.335491,24.7070313 15.6282709,24.7070313 C13.2916609,24.7070313 11.4467618,23.4335938 10.5577486,21.2578125 C9.88508814,19.5625 10.7072287,18.5898438 11.3680881,18.5898438 C11.8165284,18.5898438 13.50408,20.9453125 13.50408,21.4453125 C13.50408,21.6367188 13.2011861,21.7695313 13.0438387,21.7695313 C12.4105151,21.7695313 12.1626928,21.1640625 11.0337247,19.7617188 C9.86541971,20.921875 11.8401305,23.15625 13.3270641,23.15625 C14.3537564,23.15625 15.0224831,22.2109375 14.8218651,21.515625 C14.9674115,21.515625 15.1483611,21.5273438 15.2821065,21.4921875 C15.325377,22.5507813 15.640072,23.8125 16.9224539,23.9023438 C16.9224539,23.8671875 17.0011276,23.625 17.0011276,23.6132813 C17.0011276,22.9335938 16.5841568,22.3398438 16.5841568,21.6484375 C16.5841568,20.5429688 17.4377668,19.4726563 18.3031779,18.8476563 C18.6178729,18.6132813 18.9994405,18.46875 19.3692071,18.3359375 C19.7507747,18.1914063 20.1559444,18.0234375 20.4470373,17.734375 C20.4037667,17.296875 20.2228171,16.9101563 19.7822442,16.9101563 C18.6926129,16.9101563 15.0382179,17.0664063 15.0382179,15.359375 C15.0382179,15.0976563 15.0421516,14.8476563 15.7226794,14.8476563 Z M12.6937405,15.53125 C13.8463108,15.53125 15.3332444,19.2265625 15.3332444,19.7265625 C15.3332444,19.9257813 15.1404937,20.171875 14.9162736,20.171875 C14.094133,20.171875 11.8912684,17.1679688 11.8912684,16.3554688 C11.8952021,16.0546875 12.3908466,15.53125 12.6937405,15.53125 Z M16.0649101,17.8867188 C16.4464778,18.0078125 16.8398464,18.0429688 17.2332151,18.1210938 C16.9421223,18.3320313 16.682499,18.5898438 16.4346767,18.8671875 C16.3245335,18.5351563 16.1907881,18.2109375 16.0649101,17.8867188 Z M20.9072786,7.70703125 C21.2455757,7.70703125 21.3360505,8.0546875 21.3360505,8.33203125 C21.3360505,9.078125 19.8176474,13.1992188 19.483284,14.1132813 L18.1458305,13.8789063 L19.4478808,10.21875 C19.6052283,9.73828125 20.2778887,7.70703125 20.9072786,7.70703125 Z M14.6055123,9.7265625 L15.966568,13.6445313 C15.3529128,13.59375 14.8769367,13.5273438 14.5740428,13.6992188 C14.145271,12.5742188 12.7842153,9.0234375 12.7842153,7.88671875 C12.7842153,7.421875 13.3545999,6.1015625 14.6055123,9.7265625 Z"></path>
</svg>