<svg id="behance" width="32px" height="32px" viewBox="0 0 32 32" version="1.1" xmlns="http://www.w3.org/2000/svg" xmlns:xlink="http://www.w3.org/1999/xlink">z
  <path d="M13.1633,16.4405 C13.1633,16.4405 14.2093,16.4265 14.2093,17.8035 C14.2093,18.9505 13.4443,19.0805 13.0303,19.0925 L10.2753,19.0925 L10.2753,16.4405 L13.1633,16.4405 Z M20.5581,14.911 C22.0911,14.911 22.0711,16.441 22.0711,16.441 L18.8121,16.441 C18.8121,16.441 19.0251,14.911 20.5581,14.911 Z M13.8652,13.7289 C13.8652,14.7609 13.4522,14.9109 12.9842,14.9109 L10.2752,14.9109 L10.2752,12.6969 L12.7912,12.6969 L13.1632,12.6969 C13.1632,12.6969 13.8652,12.6969 13.8652,13.7289 Z M23.973,17.765 L18.831,17.765 C18.831,19.608 20.578,19.492 20.578,19.492 C22.227,19.492 22.169,18.425 22.169,18.425 L23.915,18.425 C23.915,21.257 20.519,21.063 20.519,21.063 C16.445,21.063 16.707,17.27 16.707,17.27 C16.707,17.27 16.703,13.458 20.519,13.458 C24.535,13.458 23.973,17.765 23.973,17.765 L23.973,17.765 Z M16.315,17.927 C16.315,20.955 13.163,20.856 13.163,20.856 L10.275,20.856 L10.19,20.856 L8,20.856 L8,10.933 L10.19,10.933 L10.275,10.933 L13.163,10.933 C14.732,10.933 15.971,11.8 15.971,13.575 C15.971,15.351 14.457,15.463 14.457,15.463 C16.453,15.463 16.315,17.927 16.315,17.927 L16.315,17.927 Z M18.385,11.518 L22.479,11.518 L22.479,12.74 L18.385,12.74 L18.385,11.518 Z M16,0 C7.163,0 0,7.163 0,16 C0,24.836 7.163,32 16,32 C24.837,32 32,24.836 32,16 C32,7.163 24.837,0 16,0 L16,0 Z"></path>
</svg>