<svg width="32px" height="32px" viewBox="0 0 32 32" version="1.1" xmlns="http://www.w3.org/2000/svg" xmlns:xlink="http://www.w3.org/1999/xlink">
    <path d="M0,16 C0,7.16344357 7.16344357,2.66453526e-14 16,2.66453526e-14 C24.8365564,2.66453526e-14 32,7.16344357 32,16 C32,24.8365564 24.8365564,32 16,32 C7.16344357,32 0,24.8365564 0,16 Z M24.658457,12.6145938 L16.4318945,7.13021875 C16.1511016,6.95742578 15.8514297,6.95584375 15.5680703,7.13021875 L7.34150781,12.6145938 C7.13057031,12.7551836 7,13.0063398 7,13.2574258 L7,18.7417656 C7,18.9928867 7.13057031,19.2440078 7.34154297,19.3846328 L15.5681055,24.8697813 C15.8488984,25.0425742 16.1485703,25.0441563 16.4319297,24.8697813 L24.6584922,19.3846328 C24.8694297,19.244043 25.0000352,18.9928867 25.0000352,18.7417656 L25.0000352,13.2574258 C25.0000352,13.0063398 24.8694297,12.7551836 24.658457,12.6145938 Z M16.7734375,9.21944922 L22.8303672,13.2574258 L20.1283633,15.0654766 L16.7734375,12.8254961 L16.7734375,9.21944922 Z M15.2265625,9.21944922 L15.2265625,12.8254961 L11.8716367,15.0654766 L9.16963281,13.2574258 L15.2265625,9.21944922 Z M8.546875,14.7038594 L10.4854961,15.9996133 L8.546875,17.2953672 L8.546875,14.7038594 Z M15.2265625,22.7797773 L9.16963281,18.7418008 L11.8716367,16.93375 L15.2265625,19.1737305 L15.2265625,22.7797773 Z M16,17.8277383 L13.267832,15.9996133 L16,14.1714883 L18.732168,15.9996133 L16,17.8277383 Z M16.7734375,22.7797773 L16.7734375,19.1737305 L20.1283633,16.93375 L22.8303672,18.7418008 L16.7734375,22.7797773 Z M23.453125,17.2953672 L21.5145039,15.9996133 L23.453125,14.7038594 L23.453125,17.2953672 Z"></path>
</svg>