<svg width="32px" height="32px" viewBox="0 0 32 32" version="1.1" xmlns="http://www.w3.org/2000/svg" xmlns:xlink="http://www.w3.org/1999/xlink">
  <path d="M20.444,19.555 C18.48,19.555 16.888,17.963 16.888,16 C16.888,14.036 18.48,12.444 20.444,12.444 C22.408,12.444 24,14.036 24,16 C24,17.963 22.408,19.555 20.444,19.555 M11.555,19.555 C9.591,19.555 8,17.963 8,16 C8,14.036 9.591,12.444 11.555,12.444 C13.519,12.444 15.111,14.036 15.111,16 C15.111,17.963 13.519,19.555 11.555,19.555 M16,0 C7.163,0 0,7.163 0,16 C0,24.836 7.163,32 16,32 C24.836,32 32,24.836 32,16 C32,7.163 24.836,0 16,0"></path>
</svg>