<svg width="32px" height="32px" viewBox="0 0 32 32" version="1.1" xmlns="http://www.w3.org/2000/svg" xmlns:xlink="http://www.w3.org/1999/xlink">
  <path d="M18.274,22.385 C18.274,22.385 17.192,22.516 16,22.516 C14.808,22.516 13.712,22.395 13.712,22.395 C10.927,22.078 8,21.002 8,16.197 C8,14.828 8.488,13.709 9.29,12.832 C9.162,12.515 8.731,11.24 9.413,9.513 C9.413,9.513 10.466,9.176 12.862,10.799 C13.862,10.521 14.935,10.382 16.001,10.377 C17.066,10.382 18.139,10.521 19.141,10.799 C21.535,9.176 22.586,9.513 22.586,9.513 C23.27,11.24 22.84,12.515 22.711,12.832 C23.514,13.709 24,14.828 24,16.197 C24,21.014 21.068,22.075 18.274,22.385 M16,5.32907052e-15 C7.163,5.32907052e-15 -1.42108547e-14,7.163 -1.42108547e-14,16 C-1.42108547e-14,24.836 7.163,32 16,32 C24.836,32 32,24.836 32,16 C32,7.163 24.836,5.32907052e-15 16,5.32907052e-15"></path>
</svg>