<svg width="32px" height="32px" viewBox="0 0 32 32" version="1.1" xmlns="http://www.w3.org/2000/svg" xmlns:xlink="http://www.w3.org/1999/xlink">
  <path d="M0,16 C0,7.16344357 7.16344357,0 16,0 C24.8365564,0 32,7.16344357 32,16 C32,24.8365564 24.8365564,32 16,32 C7.16344357,32 0,24.8365564 0,16 Z M16.000825,7.46666667 C13.6108668,7.46666667 13.3109303,7.47680011 12.3722539,7.51822276 C11.4354108,7.55982319 10.7959375,7.70364691 10.2363983,7.91467133 C9.65760893,8.13262916 9.16663715,8.42418775 8.67749872,8.89868158 C8.18799362,9.37299764 7.88732383,9.84909148 7.66182148,10.410164 C7.44365254,10.9529252 7.29515099,11.5731983 7.25298389,12.4812967 C7.21100011,13.3915284 7.2,13.6825536 7.2,16.0000889 C7.2,18.3176241 7.21063344,18.6075827 7.25316722,19.5178144 C7.296251,20.4262683 7.44456921,21.0463637 7.66200481,21.5889471 C7.88695716,22.1501974 8.18762695,22.6262912 8.67694872,23.1006073 C9.16590381,23.5752789 9.65687559,23.8675486 10.2352983,24.0855064 C10.7952041,24.2965309 11.4348608,24.4403546 12.3715205,24.481955 C13.310197,24.5233777 13.6099501,24.5335111 15.999725,24.5335111 C18.3898666,24.5335111 18.6888863,24.5233777 19.6275628,24.481955 C20.5644059,24.4403546 21.2046125,24.2965309 21.7645184,24.0855064 C22.3431244,23.8675486 22.8333628,23.5752789 23.3223179,23.1006073 C23.811823,22.6262912 24.1124928,22.1501974 24.3379952,21.5891249 C24.5543308,21.0463637 24.7028323,20.4260905 24.7468328,19.5179922 C24.7889999,18.6077605 24.8,18.3176241 24.8,16.0000889 C24.8,13.6825536 24.7889999,13.3917062 24.7468328,12.4814745 C24.7028323,11.5730206 24.5543308,10.9529252 24.3379952,10.4103418 C24.1124928,9.84909148 23.811823,9.37299764 23.3223179,8.89868158 C22.8328128,8.42400997 22.3433077,8.13245138 21.7639684,7.91467133 C21.2029625,7.70364691 20.5631225,7.55982319 19.6262794,7.51822276 C18.687603,7.47680011 18.3887665,7.46666667 15.998075,7.46666667 L16.000825,7.46666667 Z M15.2113833,9.00446046 C15.4456857,9.0041049 15.7071218,9.00446046 16.0008248,9.00446046 C18.3504493,9.00446046 18.6289355,9.01263833 19.5567952,9.05352764 C20.4148041,9.09157248 20.8804756,9.23059615 21.1906789,9.34739737 C21.6013498,9.50206565 21.8941362,9.68695646 22.2019561,9.98562624 C22.5099593,10.284296 22.7006279,10.5687434 22.8604963,10.9669698 C22.9809475,11.2674174 23.124499,11.7189776 23.1635494,12.5509863 C23.2057165,13.4505512 23.2148833,13.7207763 23.2148833,15.9981333 C23.2148833,18.2754904 23.2057165,18.5457154 23.1635494,19.4452803 C23.1243157,20.277289 22.9809475,20.7288493 22.8604963,21.0292968 C22.7009946,21.4275232 22.5099593,21.7110817 22.2019561,22.0095737 C21.8939529,22.3082435 21.6015332,22.4931343 21.1906789,22.6478026 C20.8808423,22.7651371 20.4148041,22.9038052 19.5567952,22.9418501 C18.6291189,22.9827394 18.3504493,22.9916284 16.0008248,22.9916284 C13.651017,22.9916284 13.3725308,22.9827394 12.4448544,22.9418501 C11.5868455,22.9034497 11.121174,22.764426 10.8107874,22.6476248 C10.4001165,22.4929565 10.1067801,22.3080657 9.79877688,22.0093959 C9.49077367,21.7107262 9.30010502,21.4269899 9.14023668,21.0285857 C9.01978543,20.7281381 8.87623393,20.2765779 8.83718353,19.4445692 C8.79501642,18.5450043 8.786583,18.2747793 8.786583,15.996 C8.786583,13.7172207 8.79501642,13.4484179 8.83718353,12.5488529 C8.87641727,11.7168443 9.01978543,11.265284 9.14023668,10.9644809 C9.29973835,10.5662545 9.49077367,10.2818071 9.79877688,9.98313732 C10.1067801,9.68446755 10.4001165,9.49957673 10.8107874,9.34455289 C11.1209907,9.22721834 11.5868455,9.08855023 12.4448544,9.05032761 C13.2566629,9.01477168 13.5712662,9.0041049 15.2113833,9.00232711 L15.2113833,9.00446046 Z M20.6982404,10.4213641 C20.1152343,10.4213641 19.6422294,10.8795022 19.6422294,11.4450192 C19.6422294,12.0103584 20.1152343,12.4690299 20.6982404,12.4690299 C21.2812465,12.4690299 21.7542514,12.0103584 21.7542514,11.4450192 C21.7542514,10.87968 21.2812465,10.4210086 20.6982404,10.4210086 L20.6982404,10.4213641 Z M16.0008248,11.617821 C13.5050822,11.617821 11.4816111,13.5799748 11.4816111,16.0000889 C11.4816111,18.420203 13.5050822,20.3814679 16.0008248,20.3814679 C18.4965675,20.3814679 20.5193052,18.420203 20.5193052,16.0000889 C20.5193052,13.5799748 18.4963841,11.617821 16.0006415,11.617821 L16.0008248,11.617821 Z M16.0008249,13.1556148 C17.6207751,13.1556148 18.9341888,14.4290503 18.9341888,16.0000889 C18.9341888,17.5709497 17.6207751,18.844563 16.0008249,18.844563 C14.3806913,18.844563 13.067461,17.5709497 13.067461,16.0000889 C13.067461,14.4290503 14.3806913,13.1556148 16.0008249,13.1556148 Z"></path>
</svg>